#!OML:ASF I:\Actors\actors\Patient Classification 1\Patient 1\Session 1\Subject1.ASF
:FULLY-SPECIFIED
:DEGREES
1473
root 0.196167 17.7224 8.59717 20.1165 -3.51838 -8.16858
lowerback 10.7326 0.651062 6.04768
upperback -3.64273 1.77349 0.0845325
thorax -9.79845 0.482203 -3.65422
lowerneck -11.7662 -2.29777 -1.00314
upperneck 3.03355 -3.61353 10.6226
head 3.05079 -1.35534 3.17809
rclavicle -1.35174e-014 7.15625e-015
rhumerus -6.51973 54.2889 -78.5617
rradius 59.021
rwrist 16.9665
rhand 12.7671 -19.3319
rfingers 7.12502
rthumb 37.7459 -45.1998
lclavicle -1.35174e-014 7.15625e-015
lhumerus -20.2943 -38.048 87.976
lradius 54.6117
lwrist -7.14953
lhand -22.9065 -27.7786
lfingers 7.12502
lthumb 3.53341 2.17184
rfemur -15.8795 28.8017 17.4987
rtibia 0.412741
rfoot -9.97903 -30.0619
rtoes 3.68509
lfemur -9.0072 -56.0194 -1.04642
ltibia -5.1465
lfoot -50.8081 61.5591
ltoes 30.1118
1474
root 0.194531 17.721 8.65719 19.2664 -3.7264 -7.58717
lowerback 10.0659 0.650742 5.43696
upperback -4.11715 1.64832 -0.0136662
thorax -9.95138 0.44302 -3.38159
lowerneck -12.0359 -2.35535 -1.09562
upperneck 4.97988 -3.85755 10.5533
head 3.69745 -1.40124 3.15401
rclavicle 1.45113e-014 -2.22639e-014
rhumerus -10.1241 56.1335 -80.3821
rradius 60.4239
rwrist 14.6471
rhand 12.0712 -20.0946
rfingers 7.12502
rthumb 37.0881 -46.1362
lclavicle 1.45113e-014 -2.22639e-014
lhumerus -23.7454 -37.3514 89.5695
lradius 55.616
lwrist -6.989
lhand -22.8263 -27.5962
lfingers 7.12502
lthumb 3.61082 2.35295
rfemur -14.7871 28.1754 17.4858
rtibia 0.72454
rfoot -10.2969 -29.3494
rtoes 3.61796
lfemur -7.45681 -56.6492 -3.21751
ltibia -4.70677
lfoot -51.0208 62.0791
ltoes 29.1656
1475
root 0.193955 17.7185 8.71612 18.5721 -3.74027 -7.27303
lowerback 9.2342 0.620068 5.16087
upperback -4.57118 1.53233 -0.0115537
thorax -9.97734 0.396809 -3.18778
lowerneck -12.0534 -2.39329 -1.25207
upperneck 6.53111 -4.02504 10.5092
head 4.18377 -1.43293 3.15591
rclavicle 1.43125e-014 -1.98785e-014
rhumerus -14.4042 56.2996 -83.114
rradius 61.7159
rwrist 13.639
rhand 12.4558 -20.1861
rfingers 7.12502
rthumb 37.4517 -46.1325
lclavicle 1.43125e-014 -1.98785e-014
lhumerus -26.9255 -36.5546 90.9846
lradius 56.6129
lwrist -7.1317
lhand -22.7395 -27.6283
lfingers 7.12502
lthumb 3.69469 2.31945
rfemur -13.8372 27.5786 17.7184
rtibia 1.02845
rfoot -10.5999 -28.7526
rtoes 3.35939
lfemur -6.10894 -57.2735 -4.83816
ltibia -4.37636
lfoot -50.9996 62.7105
ltoes 27.9891
1476
root 0.193645 17.715 8.77887 18.0351 -3.45896 -7.3847
lowerback 8.22963 0.548257 5.3876
upperback -5.01653 1.42889 0.11772
thorax -9.88412 0.332269 -3.14
lowerneck -12.0458 -2.43537 -1.45241
upperneck 7.95905 -4.18447 10.5195
head 4.63289 -1.46568 3.18377
rclavicle 1.80894e-014 9.54166e-015
rhumerus -18.8602 54.8089 -86.2034
rradius 62.843
rwrist 13.8663
rhand 13.5095 -20.0337
rfingers 7.12502
rthumb 38.4468 -45.7099
lclavicle 1.80894e-014 9.54166e-015
lhumerus -29.8138 -35.7327 92.2391
lradius 57.5335
lwrist -7.29774
lhand -22.4176 -27.7696
lfingers 7.12502
lthumb 4.00552 2.17247
rfemur -12.9148 27.1412 18.4456
rtibia 1.21816
rfoot -10.8607 -28.4789
rtoes 3.01854
lfemur -5.00056 -57.9593 -5.67614
ltibia -4.15679
lfoot -50.3254 63.6757
ltoes 26.1363
1477
root 0.191476 17.7098 8.84153 17.6046 -3.15355 -7.70445
lowerback 7.12574 0.50192 5.76804
upperback -5.43732 1.36816 0.288368
thorax -9.69947 0.282394 -3.14069
lowerneck -12.1096 -2.47283 -1.49547
upperneck 9.33154 -4.34245 10.3839
head 5.07301 -1.50288 3.14065
rclavicle -9.93923e-015 1.19271e-014
rhumerus -23.0392 51.8266 -89.0568
rradius 63.9668
rwrist 15.2418
rhand 14.7315 -19.7079
rfingers 7.12502
rthumb 39.5988 -45.0537
lclavicle -9.93923e-015 1.19271e-014
lhumerus -32.435 -34.9426 93.3209
lradius 58.3202
lwrist -7.3844
lhand -22.0819 -27.8124
lfingers 7.12502
lthumb 4.32965 2.12338
rfemur -12.0553 26.791 19.3702
rtibia 1.34154
rfoot -11.1372 -28.256
rtoes 2.88371
lfemur -3.69206 -56.9359 -6.47346
ltibia -4.37139
lfoot -46.9937 63.5183
ltoes 24.5205
